<svg width="41" height="33" viewBox="0 0 41 33" fill="none" xmlns="http://www.w3.org/2000/svg">
<path d="M18.5841 1.63628L22.1017 14.764V0.331106C22.3806 0.266018 22.6625 0.208697 22.9472 0.159383V14.7654L26.9035 0C27.1886 0.0258116 27.4715 0.0595849 27.7517 0.101096L23.7635 14.9854L31.6911 1.25442C31.9493 1.37061 32.2037 1.49387 32.454 1.62397L24.4969 15.4062L35.8567 4.04632C36.0615 4.24 36.2609 4.43938 36.4545 4.6442L25.093 16.0057L38.8768 8.04762C39.0069 8.2979 39.1301 8.55231 39.2463 8.81059L25.5187 16.7362L40.399 12.7491C40.4404 13.0294 40.4742 13.3122 40.5 13.5973L25.7349 17.5536H40.3404C40.2911 17.8383 40.2337 18.1202 40.1686 18.3991H25.7326L38.8629 21.9174C38.728 22.1756 38.5859 22.4294 38.4367 22.6785L25.5175 19.2168L36.308 25.4467C36.1038 25.6568 35.8934 25.8609 35.6772 26.0588L25.0957 19.9495L33.1026 27.9564C32.8493 28.1044 32.5913 28.2452 32.3289 28.3785L24.497 20.5465L29.6285 29.4347C29.3476 29.5141 29.0633 29.5856 28.7759 29.6488L23.764 20.968L26.1805 29.9862C25.9651 29.9954 25.7485 30 25.5309 30C25.4566 30 25.3824 29.9995 25.3084 29.9984L22.9472 21.1861V29.7788C22.6625 29.7295 22.3806 29.6721 22.1017 29.6071V21.1875L20.0197 28.9575C19.7542 28.8528 19.4923 28.7408 19.2344 28.6216L21.2847 20.9698L17.4359 27.6362C17.1976 27.4836 16.9639 27.3245 16.7351 27.159L20.5536 20.5451L15.206 25.8927C15.0012 25.6991 14.8018 25.4997 14.6081 25.2949L19.9541 19.949L13.3421 23.7664C13.1766 23.5376 13.0175 23.3039 12.8648 23.0657L19.5343 19.2151L11.8787 21.2664C11.7596 21.0085 11.6475 20.7466 11.5428 20.4811L19.3128 18.3991L10.8931 18.3991C10.828 18.1202 10.7707 17.8383 10.7214 17.5536L19.3105 17.5536L10.5016 15.1933C10.5005 15.1187 10.5 15.0439 10.5 14.9691C10.5 14.752 10.5046 14.536 10.5137 14.3212L19.5331 16.7379L10.8509 11.7253C10.9141 11.4379 10.9856 11.1536 11.065 10.8726L19.9567 16.0063L12.1215 8.17103C12.2548 7.90862 12.3956 7.65064 12.5436 7.39738L20.5537 15.4076L14.442 4.82176C14.6399 4.60562 14.8441 4.39528 15.0542 4.19103L21.2852 14.9835L17.823 2.06229C18.0721 1.91319 18.3259 1.77109 18.5841 1.63628Z" fill="url(#paint0_linear_6244_48278)"/>
<defs>
<linearGradient id="paint0_linear_6244_48278" x1="25.5" y1="0" x2="25.5" y2="30" gradientUnits="userSpaceOnUse">
<stop stop-color="#84ADFF"/>
<stop offset="1" stop-color="#155EEF"/>
</linearGradient>
</defs>
</svg>
